<mxfile host="65bd71144e">
    <diagram id="sGTh_HIut4q6rHhZAafT" name="Page-1">
        <mxGraphModel dx="1774" dy="1133" grid="1" gridSize="10" guides="1" tooltips="1" connect="1" arrows="1" fold="1" page="1" pageScale="1" pageWidth="1200" pageHeight="1920" math="0" shadow="0">
            <root>
                <mxCell id="0"/>
                <mxCell id="1" parent="0"/>
                <mxCell id="5" value="" style="rounded=0;whiteSpace=wrap;html=1;movable=1;resizable=1;rotatable=1;deletable=1;editable=1;locked=0;connectable=1;fillColor=#ffe6cc;strokeColor=#d79b00;" parent="1" vertex="1">
                    <mxGeometry x="40" y="240" width="880" height="80" as="geometry"/>
                </mxCell>
                <mxCell id="38" value="&lt;span style=&quot;font-size: 18px;&quot;&gt;单向链表&lt;/span&gt;" style="text;html=1;align=center;verticalAlign=middle;whiteSpace=wrap;rounded=0;" parent="1" vertex="1">
                    <mxGeometry x="420" y="200" width="110" height="30" as="geometry"/>
                </mxCell>
                <mxCell id="39" value="&lt;span style=&quot;font-size: 18px;&quot;&gt;单链表的单个节点&lt;/span&gt;" style="text;html=1;align=center;verticalAlign=middle;whiteSpace=wrap;rounded=0;" parent="1" vertex="1">
                    <mxGeometry x="210" y="115" width="160" height="30" as="geometry"/>
                </mxCell>
                <mxCell id="40" value="" style="rounded=0;whiteSpace=wrap;html=1;fillColor=#cdeb8b;strokeColor=#36393d;" parent="1" vertex="1">
                    <mxGeometry x="50" y="250" width="140" height="60" as="geometry"/>
                </mxCell>
                <mxCell id="7" value="&lt;font style=&quot;color: light-dark(rgb(255, 255, 255), rgb(237, 237, 237)); font-size: 18px;&quot;&gt;Apple&lt;/font&gt;" style="rounded=0;whiteSpace=wrap;html=1;fillColor=light-dark(#3d91ff, #ededed);" parent="1" vertex="1">
                    <mxGeometry x="60" y="260" width="80" height="40" as="geometry"/>
                </mxCell>
                <mxCell id="59" style="edgeStyle=none;html=1;exitX=1;exitY=0.5;exitDx=0;exitDy=0;" parent="1" source="8" edge="1">
                    <mxGeometry relative="1" as="geometry">
                        <mxPoint x="230" y="279.96" as="targetPoint"/>
                    </mxGeometry>
                </mxCell>
                <mxCell id="8" value="&lt;font style=&quot;color: light-dark(rgb(255, 255, 255), rgb(237, 237, 237)); font-size: 14px;&quot;&gt;next&lt;/font&gt;" style="rounded=0;whiteSpace=wrap;html=1;fillColor=#FF6666;" parent="1" vertex="1">
                    <mxGeometry x="140" y="260" width="40" height="40" as="geometry"/>
                </mxCell>
                <mxCell id="41" value="" style="rounded=0;whiteSpace=wrap;html=1;fillColor=#cdeb8b;strokeColor=#36393d;" parent="1" vertex="1">
                    <mxGeometry x="230" y="250" width="140" height="60" as="geometry"/>
                </mxCell>
                <mxCell id="53" style="edgeStyle=none;html=1;exitX=1;exitY=0.5;exitDx=0;exitDy=0;" parent="1" source="42" edge="1">
                    <mxGeometry relative="1" as="geometry">
                        <mxPoint x="410" y="280" as="targetPoint"/>
                    </mxGeometry>
                </mxCell>
                <mxCell id="42" value="&lt;font style=&quot;color: light-dark(rgb(255, 255, 255), rgb(237, 237, 237)); font-size: 14px;&quot;&gt;next&lt;/font&gt;" style="rounded=0;whiteSpace=wrap;html=1;fillColor=#FF6666;" parent="1" vertex="1">
                    <mxGeometry x="320" y="260" width="40" height="40" as="geometry"/>
                </mxCell>
                <mxCell id="43" value="&lt;font style=&quot;color: light-dark(rgb(255, 255, 255), rgb(237, 237, 237)); font-size: 18px;&quot;&gt;Banana&lt;/font&gt;" style="rounded=0;whiteSpace=wrap;html=1;fillColor=light-dark(#3d91ff, #ededed);" parent="1" vertex="1">
                    <mxGeometry x="240" y="260" width="80" height="40" as="geometry"/>
                </mxCell>
                <mxCell id="44" value="" style="rounded=0;whiteSpace=wrap;html=1;fillColor=#cdeb8b;strokeColor=#36393d;" parent="1" vertex="1">
                    <mxGeometry x="410" y="250" width="140" height="60" as="geometry"/>
                </mxCell>
                <mxCell id="54" style="edgeStyle=none;html=1;exitX=1;exitY=0.5;exitDx=0;exitDy=0;" parent="1" source="45" edge="1">
                    <mxGeometry relative="1" as="geometry">
                        <mxPoint x="590" y="280" as="targetPoint"/>
                    </mxGeometry>
                </mxCell>
                <mxCell id="45" value="&lt;font style=&quot;color: light-dark(rgb(255, 255, 255), rgb(237, 237, 237)); font-size: 14px;&quot;&gt;next&lt;/font&gt;" style="rounded=0;whiteSpace=wrap;html=1;fillColor=#FF6666;" parent="1" vertex="1">
                    <mxGeometry x="500" y="260" width="40" height="40" as="geometry"/>
                </mxCell>
                <mxCell id="46" value="&lt;font style=&quot;color: light-dark(rgb(255, 255, 255), rgb(237, 237, 237)); font-size: 18px;&quot;&gt;Orange&lt;/font&gt;" style="rounded=0;whiteSpace=wrap;html=1;fillColor=light-dark(#3d91ff, #ededed);" parent="1" vertex="1">
                    <mxGeometry x="420" y="260" width="80" height="40" as="geometry"/>
                </mxCell>
                <mxCell id="55" style="edgeStyle=none;html=1;exitX=1;exitY=0.5;exitDx=0;exitDy=0;" parent="1" source="47" edge="1">
                    <mxGeometry relative="1" as="geometry">
                        <mxPoint x="770" y="280" as="targetPoint"/>
                    </mxGeometry>
                </mxCell>
                <mxCell id="47" value="" style="rounded=0;whiteSpace=wrap;html=1;fillColor=#cdeb8b;strokeColor=#36393d;" parent="1" vertex="1">
                    <mxGeometry x="590" y="250" width="140" height="60" as="geometry"/>
                </mxCell>
                <mxCell id="48" value="&lt;font style=&quot;color: light-dark(rgb(255, 255, 255), rgb(237, 237, 237)); font-size: 14px;&quot;&gt;next&lt;/font&gt;" style="rounded=0;whiteSpace=wrap;html=1;fillColor=#FF6666;" parent="1" vertex="1">
                    <mxGeometry x="680" y="260" width="40" height="40" as="geometry"/>
                </mxCell>
                <mxCell id="49" value="&lt;font style=&quot;color: light-dark(rgb(255, 255, 255), rgb(237, 237, 237)); font-size: 18px;&quot;&gt;Peach&lt;/font&gt;" style="rounded=0;whiteSpace=wrap;html=1;fillColor=light-dark(#3d91ff, #ededed);" parent="1" vertex="1">
                    <mxGeometry x="600" y="260" width="80" height="40" as="geometry"/>
                </mxCell>
                <mxCell id="50" value="" style="rounded=0;whiteSpace=wrap;html=1;fillColor=#cdeb8b;strokeColor=#36393d;" parent="1" vertex="1">
                    <mxGeometry x="770" y="250" width="140" height="60" as="geometry"/>
                </mxCell>
                <mxCell id="51" value="&lt;font style=&quot;color: light-dark(rgb(255, 255, 255), rgb(237, 237, 237)); font-size: 14px;&quot;&gt;next&lt;/font&gt;" style="rounded=0;whiteSpace=wrap;html=1;fillColor=#FF6666;" parent="1" vertex="1">
                    <mxGeometry x="860" y="260" width="40" height="40" as="geometry"/>
                </mxCell>
                <mxCell id="52" value="&lt;font style=&quot;color: light-dark(rgb(255, 255, 255), rgb(237, 237, 237)); font-size: 18px;&quot;&gt;Pear&lt;/font&gt;" style="rounded=0;whiteSpace=wrap;html=1;fillColor=light-dark(#3d91ff, #ededed);" parent="1" vertex="1">
                    <mxGeometry x="780" y="260" width="80" height="40" as="geometry"/>
                </mxCell>
                <mxCell id="56" value="" style="rounded=0;whiteSpace=wrap;html=1;fillColor=#cdeb8b;strokeColor=#36393d;" parent="1" vertex="1">
                    <mxGeometry x="60" y="100" width="140" height="60" as="geometry"/>
                </mxCell>
                <mxCell id="57" value="&lt;font style=&quot;color: light-dark(rgb(255, 255, 255), rgb(237, 237, 237)); font-size: 18px;&quot;&gt;node&lt;/font&gt;" style="rounded=0;whiteSpace=wrap;html=1;fillColor=light-dark(#3d91ff, #ededed);" parent="1" vertex="1">
                    <mxGeometry x="70" y="110" width="80" height="40" as="geometry"/>
                </mxCell>
                <mxCell id="58" value="&lt;font style=&quot;color: light-dark(rgb(255, 255, 255), rgb(237, 237, 237)); font-size: 14px;&quot;&gt;next&lt;/font&gt;" style="rounded=0;whiteSpace=wrap;html=1;fillColor=#FF6666;" parent="1" vertex="1">
                    <mxGeometry x="150" y="110" width="40" height="40" as="geometry"/>
                </mxCell>
                <mxCell id="61" value="" style="rounded=0;whiteSpace=wrap;html=1;movable=1;resizable=1;rotatable=1;deletable=1;editable=1;locked=0;connectable=1;fillColor=#ffe6cc;strokeColor=#d79b00;" parent="1" vertex="1">
                    <mxGeometry x="40" y="440" width="880" height="100" as="geometry"/>
                </mxCell>
                <mxCell id="62" value="&lt;span style=&quot;font-size: 18px;&quot;&gt;单向链表-删除 Orange 节点的过程&lt;/span&gt;" style="text;html=1;align=center;verticalAlign=middle;whiteSpace=wrap;rounded=0;" parent="1" vertex="1">
                    <mxGeometry x="331.25" y="400" width="297.5" height="30" as="geometry"/>
                </mxCell>
                <mxCell id="63" value="" style="rounded=0;whiteSpace=wrap;html=1;fillColor=#cdeb8b;strokeColor=#36393d;" parent="1" vertex="1">
                    <mxGeometry x="50" y="450" width="140" height="60" as="geometry"/>
                </mxCell>
                <mxCell id="64" value="&lt;font style=&quot;color: light-dark(rgb(255, 255, 255), rgb(237, 237, 237)); font-size: 18px;&quot;&gt;Apple&lt;/font&gt;" style="rounded=0;whiteSpace=wrap;html=1;fillColor=light-dark(#3d91ff, #ededed);" parent="1" vertex="1">
                    <mxGeometry x="60" y="460" width="80" height="40" as="geometry"/>
                </mxCell>
                <mxCell id="65" style="edgeStyle=none;html=1;exitX=1;exitY=0.5;exitDx=0;exitDy=0;" parent="1" source="66" edge="1">
                    <mxGeometry relative="1" as="geometry">
                        <mxPoint x="230" y="479.96" as="targetPoint"/>
                    </mxGeometry>
                </mxCell>
                <mxCell id="66" value="&lt;font style=&quot;color: light-dark(rgb(255, 255, 255), rgb(237, 237, 237)); font-size: 14px;&quot;&gt;next&lt;/font&gt;" style="rounded=0;whiteSpace=wrap;html=1;fillColor=#FF6666;" parent="1" vertex="1">
                    <mxGeometry x="140" y="460" width="40" height="40" as="geometry"/>
                </mxCell>
                <mxCell id="67" value="" style="rounded=0;whiteSpace=wrap;html=1;fillColor=#cdeb8b;strokeColor=#36393d;" parent="1" vertex="1">
                    <mxGeometry x="230" y="450" width="140" height="60" as="geometry"/>
                </mxCell>
                <mxCell id="68" style="edgeStyle=none;html=1;opacity=0;" parent="1" edge="1">
                    <mxGeometry relative="1" as="geometry">
                        <mxPoint x="410" y="480" as="targetPoint"/>
                        <mxPoint x="390" y="480" as="sourcePoint"/>
                    </mxGeometry>
                </mxCell>
                <mxCell id="84" style="edgeStyle=none;html=1;exitX=1;exitY=0.5;exitDx=0;exitDy=0;entryX=0;entryY=0.5;entryDx=0;entryDy=0;" parent="1" source="69" target="71" edge="1">
                    <mxGeometry relative="1" as="geometry"/>
                </mxCell>
                <mxCell id="87" style="edgeStyle=orthogonalEdgeStyle;html=1;exitX=0.5;exitY=1;exitDx=0;exitDy=0;entryX=0.5;entryY=1;entryDx=0;entryDy=0;" parent="1" source="69" target="76" edge="1">
                    <mxGeometry relative="1" as="geometry">
                        <Array as="points">
                            <mxPoint x="340" y="530"/>
                            <mxPoint x="660" y="530"/>
                        </Array>
                    </mxGeometry>
                </mxCell>
                <mxCell id="69" value="&lt;font style=&quot;color: light-dark(rgb(255, 255, 255), rgb(237, 237, 237)); font-size: 14px;&quot;&gt;next&lt;/font&gt;" style="rounded=0;whiteSpace=wrap;html=1;fillColor=#FF6666;" parent="1" vertex="1">
                    <mxGeometry x="320" y="460" width="40" height="40" as="geometry"/>
                </mxCell>
                <mxCell id="70" value="&lt;font style=&quot;color: light-dark(rgb(255, 255, 255), rgb(237, 237, 237)); font-size: 18px;&quot;&gt;Banana&lt;/font&gt;" style="rounded=0;whiteSpace=wrap;html=1;fillColor=light-dark(#3d91ff, #ededed);" parent="1" vertex="1">
                    <mxGeometry x="240" y="460" width="80" height="40" as="geometry"/>
                </mxCell>
                <mxCell id="71" value="" style="rounded=0;whiteSpace=wrap;html=1;fillColor=#cdeb8b;strokeColor=#36393d;" parent="1" vertex="1">
                    <mxGeometry x="410" y="450" width="140" height="60" as="geometry"/>
                </mxCell>
                <mxCell id="72" style="edgeStyle=none;html=1;exitX=1;exitY=0.5;exitDx=0;exitDy=0;" parent="1" source="73" edge="1">
                    <mxGeometry relative="1" as="geometry">
                        <mxPoint x="590" y="480" as="targetPoint"/>
                    </mxGeometry>
                </mxCell>
                <mxCell id="73" value="&lt;font style=&quot;color: light-dark(rgb(255, 255, 255), rgb(237, 237, 237)); font-size: 14px;&quot;&gt;next&lt;/font&gt;" style="rounded=0;whiteSpace=wrap;html=1;fillColor=#FF6666;" parent="1" vertex="1">
                    <mxGeometry x="500" y="460" width="40" height="40" as="geometry"/>
                </mxCell>
                <mxCell id="74" value="&lt;font style=&quot;color: light-dark(rgb(255, 255, 255), rgb(237, 237, 237)); font-size: 18px;&quot;&gt;Orange&lt;/font&gt;" style="rounded=0;whiteSpace=wrap;html=1;fillColor=light-dark(#3d91ff, #ededed);" parent="1" vertex="1">
                    <mxGeometry x="420" y="460" width="80" height="40" as="geometry"/>
                </mxCell>
                <mxCell id="75" style="edgeStyle=none;html=1;exitX=1;exitY=0.5;exitDx=0;exitDy=0;" parent="1" source="76" edge="1">
                    <mxGeometry relative="1" as="geometry">
                        <mxPoint x="770" y="480" as="targetPoint"/>
                    </mxGeometry>
                </mxCell>
                <mxCell id="76" value="" style="rounded=0;whiteSpace=wrap;html=1;fillColor=#cdeb8b;strokeColor=#36393d;" parent="1" vertex="1">
                    <mxGeometry x="590" y="450" width="140" height="60" as="geometry"/>
                </mxCell>
                <mxCell id="77" value="&lt;font style=&quot;color: light-dark(rgb(255, 255, 255), rgb(237, 237, 237)); font-size: 14px;&quot;&gt;next&lt;/font&gt;" style="rounded=0;whiteSpace=wrap;html=1;fillColor=#FF6666;" parent="1" vertex="1">
                    <mxGeometry x="680" y="460" width="40" height="40" as="geometry"/>
                </mxCell>
                <mxCell id="78" value="&lt;font style=&quot;color: light-dark(rgb(255, 255, 255), rgb(237, 237, 237)); font-size: 18px;&quot;&gt;Peach&lt;/font&gt;" style="rounded=0;whiteSpace=wrap;html=1;fillColor=light-dark(#3d91ff, #ededed);" parent="1" vertex="1">
                    <mxGeometry x="600" y="460" width="80" height="40" as="geometry"/>
                </mxCell>
                <mxCell id="79" value="" style="rounded=0;whiteSpace=wrap;html=1;fillColor=#cdeb8b;strokeColor=#36393d;" parent="1" vertex="1">
                    <mxGeometry x="770" y="450" width="140" height="60" as="geometry"/>
                </mxCell>
                <mxCell id="80" value="&lt;font style=&quot;color: light-dark(rgb(255, 255, 255), rgb(237, 237, 237)); font-size: 14px;&quot;&gt;next&lt;/font&gt;" style="rounded=0;whiteSpace=wrap;html=1;fillColor=#FF6666;" parent="1" vertex="1">
                    <mxGeometry x="860" y="460" width="40" height="40" as="geometry"/>
                </mxCell>
                <mxCell id="81" value="&lt;font style=&quot;color: light-dark(rgb(255, 255, 255), rgb(237, 237, 237)); font-size: 18px;&quot;&gt;Pear&lt;/font&gt;" style="rounded=0;whiteSpace=wrap;html=1;fillColor=light-dark(#3d91ff, #ededed);" parent="1" vertex="1">
                    <mxGeometry x="780" y="460" width="80" height="40" as="geometry"/>
                </mxCell>
                <mxCell id="82" value="&lt;font style=&quot;font-size: 18px; color: rgb(255, 0, 0);&quot;&gt;X&lt;/font&gt;" style="text;html=1;align=center;verticalAlign=middle;whiteSpace=wrap;rounded=0;opacity=0;" parent="1" vertex="1">
                    <mxGeometry x="370" y="465" width="30" height="30" as="geometry"/>
                </mxCell>
                <mxCell id="85" value="&lt;font style=&quot;font-size: 18px; color: rgb(255, 0, 0);&quot;&gt;X&lt;/font&gt;" style="text;html=1;align=center;verticalAlign=middle;whiteSpace=wrap;rounded=0;opacity=0;" parent="1" vertex="1">
                    <mxGeometry x="550" y="465" width="30" height="30" as="geometry"/>
                </mxCell>
                <mxCell id="86" value="&lt;div&gt;&lt;b&gt;删除旧连接&lt;/b&gt;：&lt;/div&gt;将 Banana.next 指向 Orange 的节点删除，&lt;div&gt;将 Orange.next 指向 Peach 的节点删除。&lt;div&gt;&lt;font color=&quot;#000000&quot;&gt;&lt;br&gt;&lt;/font&gt;&lt;div&gt;&lt;b&gt;建立新连接&lt;/b&gt;：&lt;/div&gt;&lt;div&gt;将 Banana.next 指向 Peach&lt;/div&gt;&lt;/div&gt;&lt;/div&gt;" style="text;html=1;align=left;verticalAlign=middle;whiteSpace=wrap;rounded=0;" parent="1" vertex="1">
                    <mxGeometry x="347.5" y="560" width="265" height="90" as="geometry"/>
                </mxCell>
                <mxCell id="88" value="" style="rounded=0;whiteSpace=wrap;html=1;movable=1;resizable=1;rotatable=1;deletable=1;editable=1;locked=0;connectable=1;fillColor=#ffe6cc;strokeColor=#d79b00;" parent="1" vertex="1">
                    <mxGeometry x="40" y="790" width="880" height="100" as="geometry"/>
                </mxCell>
                <mxCell id="89" value="&lt;span style=&quot;font-size: 18px;&quot;&gt;单向链表-删除 Orange 节点后的新链表&lt;/span&gt;" style="text;html=1;align=center;verticalAlign=middle;whiteSpace=wrap;rounded=0;" parent="1" vertex="1">
                    <mxGeometry x="320" y="750" width="338.75" height="30" as="geometry"/>
                </mxCell>
                <mxCell id="90" value="" style="rounded=0;whiteSpace=wrap;html=1;fillColor=#cdeb8b;strokeColor=#36393d;" parent="1" vertex="1">
                    <mxGeometry x="50" y="800" width="140" height="60" as="geometry"/>
                </mxCell>
                <mxCell id="91" value="&lt;font style=&quot;color: light-dark(rgb(255, 255, 255), rgb(237, 237, 237)); font-size: 18px;&quot;&gt;Apple&lt;/font&gt;" style="rounded=0;whiteSpace=wrap;html=1;fillColor=light-dark(#3d91ff, #ededed);" parent="1" vertex="1">
                    <mxGeometry x="60" y="810" width="80" height="40" as="geometry"/>
                </mxCell>
                <mxCell id="92" style="edgeStyle=none;html=1;exitX=1;exitY=0.5;exitDx=0;exitDy=0;" parent="1" source="93" edge="1">
                    <mxGeometry relative="1" as="geometry">
                        <mxPoint x="230" y="829.96" as="targetPoint"/>
                    </mxGeometry>
                </mxCell>
                <mxCell id="93" value="&lt;font style=&quot;color: light-dark(rgb(255, 255, 255), rgb(237, 237, 237)); font-size: 14px;&quot;&gt;next&lt;/font&gt;" style="rounded=0;whiteSpace=wrap;html=1;fillColor=#FF6666;" parent="1" vertex="1">
                    <mxGeometry x="140" y="810" width="40" height="40" as="geometry"/>
                </mxCell>
                <mxCell id="94" value="" style="rounded=0;whiteSpace=wrap;html=1;fillColor=#cdeb8b;strokeColor=#36393d;" parent="1" vertex="1">
                    <mxGeometry x="230" y="800" width="140" height="60" as="geometry"/>
                </mxCell>
                <mxCell id="95" style="edgeStyle=none;html=1;opacity=0;" parent="1" edge="1">
                    <mxGeometry relative="1" as="geometry">
                        <mxPoint x="410" y="830" as="targetPoint"/>
                        <mxPoint x="390" y="830" as="sourcePoint"/>
                    </mxGeometry>
                </mxCell>
                <mxCell id="113" style="edgeStyle=none;html=1;exitX=1;exitY=0.5;exitDx=0;exitDy=0;entryX=0;entryY=0.5;entryDx=0;entryDy=0;" parent="1" source="98" target="105" edge="1">
                    <mxGeometry relative="1" as="geometry"/>
                </mxCell>
                <mxCell id="98" value="&lt;font style=&quot;color: light-dark(rgb(255, 255, 255), rgb(237, 237, 237)); font-size: 14px;&quot;&gt;next&lt;/font&gt;" style="rounded=0;whiteSpace=wrap;html=1;fillColor=#FF6666;" parent="1" vertex="1">
                    <mxGeometry x="320" y="810" width="40" height="40" as="geometry"/>
                </mxCell>
                <mxCell id="99" value="&lt;font style=&quot;color: light-dark(rgb(255, 255, 255), rgb(237, 237, 237)); font-size: 18px;&quot;&gt;Banana&lt;/font&gt;" style="rounded=0;whiteSpace=wrap;html=1;fillColor=light-dark(#3d91ff, #ededed);" parent="1" vertex="1">
                    <mxGeometry x="240" y="810" width="80" height="40" as="geometry"/>
                </mxCell>
                <mxCell id="104" style="edgeStyle=none;html=1;exitX=1;exitY=0.5;exitDx=0;exitDy=0;" parent="1" source="105" edge="1">
                    <mxGeometry relative="1" as="geometry">
                        <mxPoint x="585" y="830" as="targetPoint"/>
                    </mxGeometry>
                </mxCell>
                <mxCell id="105" value="" style="rounded=0;whiteSpace=wrap;html=1;fillColor=#cdeb8b;strokeColor=#36393d;" parent="1" vertex="1">
                    <mxGeometry x="405" y="800" width="140" height="60" as="geometry"/>
                </mxCell>
                <mxCell id="106" value="&lt;font style=&quot;color: light-dark(rgb(255, 255, 255), rgb(237, 237, 237)); font-size: 14px;&quot;&gt;next&lt;/font&gt;" style="rounded=0;whiteSpace=wrap;html=1;fillColor=#FF6666;" parent="1" vertex="1">
                    <mxGeometry x="495" y="810" width="40" height="40" as="geometry"/>
                </mxCell>
                <mxCell id="107" value="&lt;font style=&quot;color: light-dark(rgb(255, 255, 255), rgb(237, 237, 237)); font-size: 18px;&quot;&gt;Peach&lt;/font&gt;" style="rounded=0;whiteSpace=wrap;html=1;fillColor=light-dark(#3d91ff, #ededed);" parent="1" vertex="1">
                    <mxGeometry x="415" y="810" width="80" height="40" as="geometry"/>
                </mxCell>
                <mxCell id="108" value="" style="rounded=0;whiteSpace=wrap;html=1;fillColor=#cdeb8b;strokeColor=#36393d;" parent="1" vertex="1">
                    <mxGeometry x="585" y="800" width="140" height="60" as="geometry"/>
                </mxCell>
                <mxCell id="109" value="&lt;font style=&quot;color: light-dark(rgb(255, 255, 255), rgb(237, 237, 237)); font-size: 14px;&quot;&gt;next&lt;/font&gt;" style="rounded=0;whiteSpace=wrap;html=1;fillColor=#FF6666;" parent="1" vertex="1">
                    <mxGeometry x="675" y="810" width="40" height="40" as="geometry"/>
                </mxCell>
                <mxCell id="110" value="&lt;font style=&quot;color: light-dark(rgb(255, 255, 255), rgb(237, 237, 237)); font-size: 18px;&quot;&gt;Pear&lt;/font&gt;" style="rounded=0;whiteSpace=wrap;html=1;fillColor=light-dark(#3d91ff, #ededed);" parent="1" vertex="1">
                    <mxGeometry x="595" y="810" width="80" height="40" as="geometry"/>
                </mxCell>
            </root>
        </mxGraphModel>
    </diagram>
</mxfile>